# xmcd CD Database Entry
#
# Track frame offsets:
# 150
# 16657
# 39817
# 49094
# 64896
# 88122
# 107639
# 125004
# 159837
# 173589
# 197161
# 215366
# 235745
#
# Disc length: 3490 seconds
#
# Revision: 1
# Processed by: cddbd v1.4PL0 Copyright (c) Steve Scherf et al.
# Submitted via: tcd 2.0b
#
DISCID=9f0da00d
DTITLE=Various Artist - Hastings Street Grease Volume 2
DYEAR=1900
DGENRE=
TTITLE0=Willie D. Warren - Everyday We Have the Blues
TTITLE1=Eddie Kirkland - There's Got To Be Some Changes Made
TTITLE2=Uncle Jessie White - Bad Luck Is Falling
TTITLE3=Harmonica Shah - Have Mercy Mr. Reed
TTITLE4=Emmanuel Young - I'm In The Mood
TTITLE5=Eddie Burns - When I Get Drunk
TTITLE6=Leon Horner - Boogie Chillun
TTITLE7=Piano Fats - Hastings Street Revisited, Part 2
TTITLE8=Eddie Kirkland - Going Back To The Backwoods
TTITLE9=Willie D. Warren - What Goes On In The Dark
TTITLE10=Art and Roman Griswold - Daddy, Daddy
TTITLE11=Piano Fats - Strolling Through Paradise Valley
TTITLE12=Harmonica Shah - Bring me My Shotgun
EXTD=
EXTT0=
EXTT1=
EXTT2=
EXTT3=
EXTT4=
EXTT5=
EXTT6=
EXTT7=
EXTT8=
EXTT9=
EXTT10=
EXTT11=
EXTT12=
PLAYORDER=
